<svg width="32" height="19" viewBox="0 0 32 19" fill="none" xmlns="http://www.w3.org/2000/svg">
<g clip-path="url(#clip0_501_150)">
<path d="M1 8V6C1 3.28 2.64 1.38 5.19 1.06C5.45 1.02 5.72 1 6 1H15C15.26 1 15.51 1.00999 15.75 1.04999C18.33 1.34999 20 3.26 20 6V7.45001H17.92C17.36 7.45001 16.85 7.67 16.48 8.05C16.06 8.46 15.82 9.05 15.88 9.68C15.97 10.76 16.96 11.55 18.04 11.55H20V13C20 16 18 18 15 18H12.5" stroke="#9197B3" stroke-width="1.5" stroke-linecap="round" stroke-linejoin="round"/>
<path d="M24.1291 2.01995V4.08005C24.1291 4.63005 23.6891 5.07995 23.1291 5.09995H21.169C20.089 5.09995 19.0991 4.30995 19.0091 3.22995C18.9491 2.59995 19.189 2.00995 19.609 1.59995C19.979 1.21995 20.4891 1 21.0491 1H23.1291C23.6891 1.02 24.1291 1.46995 24.1291 2.01995Z" stroke="#9197B3" stroke-width="1.5" stroke-linecap="round" stroke-linejoin="round"/>
<path d="M30.2792 1V3.03C30.2792 4.75 28.6792 6.14 26.7092 6.14C24.7392 6.14 23.1292 4.75 23.1292 3.03V1C23.1292 2.72 24.7292 3.94 26.7092 3.94C28.6792 3.94 30.2792 2.71 30.2792 1Z" stroke="#9197B3" stroke-width="1.5" stroke-linecap="round" stroke-linejoin="round"/>
<path d="M12.1363 7.36523C12.1363 7.66933 11.9621 7.9491 11.6633 8.19238C10.9289 8.78233 9.42273 9.15333 7.6801 9.15333C5.93746 9.15333 4.43132 8.77625 3.69692 8.19238C3.39819 7.9491 3.224 7.66933 3.224 7.36523C3.224 6.84219 3.72187 6.37388 4.5185 6.03329C5.32758 5.68661 6.43535 5.47983 7.66764 5.47983C8.89993 5.47983 10.0078 5.6927 10.8169 6.03329C11.6384 6.36779 12.1363 6.84219 12.1363 7.36523Z" stroke="#9197B3" stroke-width="1.5" stroke-linecap="round" stroke-linejoin="round"/>
<path d="M12.1382 7.36524V9.03778C12.1382 10.0839 10.1466 10.8259 7.69447 10.8259C5.24233 10.8259 3.23828 10.0778 3.23828 9.03778V7.36524C3.23828 6.31915 5.22989 5.47375 7.69447 5.47375C8.92676 5.47375 10.0346 5.68662 10.8437 6.02721C11.6403 6.3678 12.1382 6.84219 12.1382 7.36524Z" stroke="#9197B3" stroke-width="1.5" stroke-linecap="round" stroke-linejoin="round"/>
</g>
<defs>
<clipPath id="clip0_501_150">
<rect width="31.2792" height="19" fill="white"/>
</clipPath>
</defs>
</svg>
